<?xml version="1.0" encoding="UTF-8" standalone="no"?>
<svg xmlns="http://www.w3.org/2000/svg" version="1.1" width="600" height="587" viewbox="0 0 600 587">
<title>undefined</title><path d="M300,0 L0,0 L0,293.5 L0,587 L300,587 L600,587 L600,293.5 L600,0 L300,0 " fill="rgb(87, 205, 241)" stroke="none" fill-rule="evenodd"></path><path d="M300,0 L0,0 L0,293.5 L0,587 L300,587 L600,587 L600,293.5 L600,0 L300,0 " fill="rgb(255, 255, 255)" stroke="none" fill-rule="evenodd"></path><path d="M300,0 L0,0 L0,293.5 L0,587 L300,587 L600,587 L600,293.5 L600,0 L300,0 M170,23 C246.45,23,311.025,23.225,313.5,23.5 C315.975,23.775,360.3,24,412,24 L506,24 L503.5,30.5 C502.125,34.075,498.525,43.3,495.5,51 C492.475,58.7,487.075,72.425,483.5,81.5 C479.925,90.575,474.075,105.425,470.5,114.5 C466.925,123.575,462.65,134.375,461,138.5 C459.35,142.625,453.275,157.925,447.5,172.5 C441.725,187.075,431.15,214.075,424,232.5 C416.85,250.925,408.975,271.175,406.5,277.5 C404.025,283.825,398.85,297.1,395,307 C391.15,316.9,383.275,336.925,377.5,351.5 C371.725,366.075,364.3,384.975,361,393.5 C357.7,402.025,351.625,417.775,347.5,428.5 C343.375,439.225,337.975,453.175,335.5,459.5 C333.025,465.825,328.975,476.175,326.5,482.5 C324.025,488.825,318.85,502.1,315,512 C311.15,521.9,307.775,529.775,307.5,529.5 C307.225,529.225,304.75,524.725,302,519.5 C299.25,514.275,292.725,502.125,287.5,492.5 C282.275,482.875,273.5,466.9,268,457 C262.5,447.1,253.5,430.9,248,421 C242.5,411.1,233.05,394,227,383 C220.95,372,211.05,354,205,343 C198.95,332,189.95,315.575,185,306.5 C180.05,297.425,171.95,282.575,167,273.5 C162.05,264.425,153.725,249.125,148.5,239.5 C143.275,229.875,133.375,211.875,126.5,199.5 C119.625,187.125,109.05,168,103,157 C96.95,146,87.95,129.575,83,120.5 C78.05,111.425,69.275,95.45,63.5,85 C57.725,74.55,53.45,66.225,54,66.5 C54.55,66.775,55.45,66.775,56,66.5 C56.55,66.225,73.425,66,93.5,66 C113.575,66,132.025,66.225,134.5,66.5 C136.975,66.775,167.8,67,203,67 C238.2,67,269.025,67.225,271.5,67.5 C273.975,67.775,276.45,67.775,277,67.5 C277.55,67.225,277.55,68.575,277,70.5 C276.45,72.425,274.65,78.275,273,83.5 C271.35,88.725,268.425,98.175,266.5,104.5 C264.575,110.825,261.2,121.85,259,129 C256.8,136.15,253.875,145.6,252.5,150 C251.125,154.4,245.95,172.175,241,189.5 C236.05,206.825,232.9,220.325,234,219.5 C235.1,218.675,239.6,214.4,244,210 C248.4,205.6,257.4,196.375,264,189.5 C270.6,182.625,284.325,168.225,294.5,157.5 L313,138 L313,146.5 C313,151.175,313.225,157.025,313.5,159.5 C313.775,161.975,314,168.95,314,175 C314,181.05,314.225,188.025,314.5,190.5 C314.775,192.975,315,200.625,315,207.5 C315,214.375,315.225,222.025,315.5,224.5 C315.775,226.975,316,234.4,316,241 C316,247.6,316.225,255.025,316.5,257.5 C316.775,259.975,316.775,262.225,316.5,262.5 C316.225,262.775,316.225,263.225,316.5,263.5 C316.775,263.775,317,266.475,317,269.5 C317,272.525,317.225,277.025,317.5,279.5 C317.775,281.975,318,290.3,318,298 C318,305.7,318.225,314.025,318.5,316.5 C318.775,318.975,319,324.825,319,329.5 C319,334.175,319.225,340.025,319.5,342.5 C319.775,344.975,320,352.625,320,359.5 L320,372 L313,392 C309.15,403,305.325,413.575,304.5,415.5 C303.675,417.425,302.55,420.8,302,423 C301.45,425.2,300.775,426.775,300.5,426.5 C300.225,426.225,298.425,423.075,296.5,419.5 C294.575,415.925,291.875,410.525,290.5,407.5 C288.84,403.848,288,394.606,288,380 C288,367.9,287.775,355.975,287.5,353.5 C287.225,351.025,287,341.35,287,332 C287,322.65,286.775,312.975,286.5,310.5 C286.225,308.025,286,299.025,286,290.5 C286,281.975,285.775,272.975,285.5,270.5 C285.225,268.025,284.775,253.175,284.5,237.5 L284,209 L276.5,216.5 C272.375,220.625,266.525,226.7,263.5,230 C260.475,233.3,254.175,240.275,249.5,245.5 C244.825,250.725,237.4,259.05,233,264 C228.6,268.95,221.85,276.6,218,281 L211,289 L216,298.5 C218.75,303.725,225.275,315.875,230.5,325.5 C235.725,335.125,244.05,350.425,249,359.5 C253.95,368.575,263.175,385.45,269.5,397 C275.825,408.55,284.375,424.3,288.5,432 C292.625,439.7,297.8,448.7,300,452 C302.344,455.515,304.414,457.379,305,456.5 C305.55,455.675,308.25,449.15,311,442 C313.75,434.85,320.275,417.975,325.5,404.5 C330.725,391.025,338.15,371.9,342,362 C345.85,352.1,353.275,332.525,358.5,318.5 C363.725,304.475,371.15,284.675,375,274.5 C378.85,264.325,384.7,249.025,388,240.5 C391.3,231.975,398.95,211.95,405,196 C411.05,180.05,420.725,154.625,426.5,139.5 C432.275,124.375,439.925,104.125,443.5,94.5 C447.075,84.875,450.675,75.425,451.5,73.5 C452.325,71.575,453.45,67.75,454,65 C454.596,62.02,454.192,59.596,453,59 C451.9,58.45,442,58,431,58 C420,58,408.975,57.775,406.5,57.5 C404.025,57.225,385.125,57,364.5,57 C343.875,57,324.975,56.775,322.5,56.5 C320.025,56.225,285.375,56,245.5,56 C205.625,56,170.975,55.775,168.5,55.5 C166.025,55.225,143.75,55,119,55 C94.25,55,71.975,54.775,69.5,54.5 C67.025,54.225,62.075,54,58.5,54 C54.925,54,50.425,53.55,48.5,53 C45.83,52.237,43.339,48.56,38,37.5 L31,23 L170,23 M534.5,24.5 C536.425,24.775,543.4,24.775,550,24.5 L562,24 L558.5,32 C556.575,36.4,550.725,50.8,545.5,64 C540.275,77.2,533.75,93.625,531,100.5 C528.25,107.375,523.975,117.725,521.5,123.5 C519.025,129.275,510.7,149.75,503,169 C495.3,188.25,485.4,213,481,224 C476.6,235,470.975,249.175,468.5,255.5 C466.025,261.825,456.35,286.125,447,309.5 C437.65,332.875,421.45,373.375,411,399.5 C400.55,425.625,390.65,450.375,389,454.5 C387.35,458.625,378.125,481.8,368.5,506 C358.875,530.2,348.3,556.975,345,565.5 L339,581 L334.5,573.5 C332.025,569.375,328.425,563.525,326.5,560.5 C324.575,557.475,322.775,553.425,322.5,551.5 C322.225,549.575,323.125,545.075,324.5,541.5 C325.875,537.925,331.5,523.75,337,510 C342.5,496.25,353.3,469.25,361,450 C368.7,430.75,376.35,411.625,378,407.5 C379.65,403.375,383.925,392.575,387.5,383.5 C391.075,374.425,396.475,360.7,399.5,353 C402.525,345.3,407.025,333.825,409.5,327.5 C411.975,321.175,416.025,310.825,418.5,304.5 C420.975,298.175,428.625,278.825,435.5,261.5 C442.375,244.175,452.95,217.625,459,202.5 C465.05,187.375,474.95,162.625,481,147.5 C487.05,132.375,497.4,106.05,504,89 C510.6,71.95,518.25,52.375,521,45.5 C523.75,38.625,527.125,30.975,528.5,28.5 C530.419,25.045,531.813,24.116,534.5,24.5 M326.5,69 C341.625,69,356.025,69.225,358.5,69.5 C360.975,69.775,379.875,70,400.5,70 L438,70 L434.5,78.5 C432.575,83.175,426.275,98.925,420.5,113.5 C414.725,128.075,409.1,141.8,408,144 C406.9,146.2,401.05,152.05,395,157 L384,166 L392.5,165 L401,164 L396.5,175 C394.025,181.05,390.875,187.575,389.5,189.5 L387,193 L376,193 C369.95,193,362.975,193.225,360.5,193.5 C358.025,193.775,352.4,194,348,194 C343.6,194,337.975,194.225,335.5,194.5 C333.025,194.775,330.775,194.775,330.5,194.5 C330.225,194.225,334.5,188.825,340,182.5 C345.5,176.175,353.6,166.95,358,162 C362.4,157.05,370.275,148.05,375.5,142 C380.725,135.95,389.5,125.825,395,119.5 C400.5,113.175,405.675,106.65,406.5,105 L408,102 L367,102 C344.45,102,317.225,101.775,306.5,101.5 L287,101 L291,88 C293.2,80.85,295.9,73.65,297,72 L299,69 L326.5,69 M162,102 L108,102 L111,108.5 C112.65,112.075,118.725,123.55,124.5,134 C130.275,144.45,138.15,158.85,142,166 C145.85,173.15,153.05,186.425,158,195.5 C162.95,204.575,171.5,220.1,177,230 C182.5,239.9,188.125,249.35,189.5,251 L192,254 L194,248 C195.1,244.7,198.7,232.325,202,220.5 C205.3,208.675,210.925,188.65,214.5,176 C218.075,163.35,223.925,142.65,227.5,130 C231.075,117.35,234.225,106.1,234.5,105 C234.843,103.627,232.02,102.843,225.5,102.5 C220.275,102.225,191.7,102,162,102 M337.5,235 C340.525,235,347.275,235.225,352.5,235.5 L362,236 L362,248.5 C362,255.519,360.684,264.947,359,270 C357.35,274.95,351.5,291.15,346,306 C340.5,320.85,334.875,336.6,333.5,341 C332.125,345.4,330.55,348.325,330,347.5 C329.45,346.675,329.225,345.325,329.5,344.5 C329.775,343.675,330,334.675,330,324.5 C330,314.325,329.775,303.975,329.5,301.5 C329.225,299.025,329,284.175,329,268.5 C329,252.825,329.675,238.875,330.5,237.5 C331.419,235.969,334.131,235,337.5,235 " fill="rgb(0, 0, 0)" stroke="none" fill-rule="evenodd"></path></svg>